<svg id="Group_1631" data-name="Group 1631" xmlns="http://www.w3.org/2000/svg" width="60" height="60" viewBox="0 0 60 60">
  <circle id="Ellipse_111" data-name="Ellipse 111" cx="30" cy="30" r="30" opacity="0.35"/>
  <g id="play-and-pause-button" transform="translate(16.739 15.242)">
    <g id="Group_835" data-name="Group 835" transform="translate(0)">
      <g id="Group_832" data-name="Group 832" transform="translate(0 0.001)">
        <path id="Path_365" data-name="Path 365" d="M7.156,28.686a2.6,2.6,0,0,1-4.434-1.83V2.6A2.6,2.6,0,0,1,7.156.766L18.624,12.29a3.451,3.451,0,0,1,0,4.87Z" transform="translate(-2.722 -0.001)" fill="#fff"/>
      </g>
      <g id="Group_834" data-name="Group 834" transform="translate(19.601)">
        <g id="Group_833" data-name="Group 833">
          <path id="Path_366" data-name="Path 366" d="M36.462,29.517a3.209,3.209,0,0,1-3.21-3.21V3.21a3.21,3.21,0,1,1,6.42,0v23.1A3.21,3.21,0,0,1,36.462,29.517Z" transform="translate(-33.252)" fill="#fff"/>
        </g>
      </g>
    </g>
  </g>
</svg>
